# xmcd
#
# Track frame offsets: 
#        150
#        10179
#        22521
#        33372
#        46022
#        57845
#        67875
#        79958
#        91287
#        100983
#        109133
#        120024
#        130242
#        140066
#        149349
#        160948
#
# Disc length: 2291 seconds
#
# Revision: 1
# Processed by: cddbd v1.5.2PL0 Copyright (c) Steve Scherf et al.
# Submitted via: ExactAudioCopy v0.95b4
#
DISCID=c408f110
DTITLE=Johnny Cash - American Icon
DYEAR=2006
DGENRE=Country
TTITLE0=Get Rhythm
TTITLE1=I Walk The Line
TTITLE2=Cry, Cry, Cry
TTITLE3=Folsom Prison Blues
TTITLE4=Home Of The Blues
TTITLE5=Hey Porter
TTITLE6=Give My Love To Rose
TTITLE7=Big River
TTITLE8=Rock Island Line
TTITLE9=Guess Things Happen That Way
TTITLE10=The Ways Of A Woman In Love
TTITLE11=There You Go
TTITLE12=Ballad Of A Teenage Queen
TTITLE13=Luther Played The Boogie
TTITLE14=Thanks A Lot
TTITLE15=Don´T Make Me Go
EXTD=
EXTT0=
EXTT1=
EXTT2=
EXTT3=
EXTT4=
EXTT5=
EXTT6=
EXTT7=
EXTT8=
EXTT9=
EXTT10=
EXTT11=
EXTT12=
EXTT13=
EXTT14=
EXTT15=
PLAYORDER=
